<svg enable-background="new 0 0 180 180" viewBox="0 0 180 180" xmlns="http://www.w3.org/2000/svg"><path d="m153.612 90c0 35.133-28.48 63.613-63.613 63.613-35.131 0-63.611-28.48-63.611-63.613s28.48-63.613 63.611-63.613c35.134 0 63.613 28.48 63.613 63.613z" fill="#adebf6"/><path d="m83.364 70.23 1.457-.342-.721-3.076-1.457.344c-.496-1.131-1.217-2.117-2.096-2.916l.789-1.274-2.685-1.666-.788 1.273c-.871-.34-1.804-.541-2.765-.582-.246-.012-.498-.012-.75 0-.01 0-.021.002-.03.002l-.34-1.459-3.075.721.342 1.459c-.297.129-.585.275-.859.435-.778.447-1.469 1.01-2.059 1.658l-1.273-.787-1.662 2.684 1.27.787c-.432 1.109-.638 2.312-.58 3.545l-1.457.344.722 3.074 1.456-.342c.496 1.131 1.215 2.117 2.096 2.918l-.788 1.271 2.683 1.666.791-1.274c1.107.434 2.311.639 3.545.58l.341 1.459 3.073-.721-.344-1.454c.299-.133.587-.277.863-.438.774-.447 1.466-1.012 2.055-1.658l1.273.787 1.664-2.684-1.271-.789c.432-1.107.639-2.31.58-3.545zm-5.437 5.932c-.531.309-1.117.545-1.746.691-3.434.805-6.871-1.326-7.678-4.76-.656-2.807.645-5.613 3.016-6.986.531-.309 1.117-.545 1.746-.691.363-.084.724-.137 1.084-.158.252-.016.504-.016.75-.002 2.749.162 5.183 2.102 5.844 4.922.657 2.804-.645 5.609-3.016 6.984z" fill="#88d0d8"/><path d="m119.595 108.494.955-.223-.473-2.018-.954.227c-.325-.742-.797-1.387-1.372-1.91l.516-.834-1.758-1.092-.518.834c-.57-.223-1.181-.354-1.81-.381-.162-.006-.327-.006-.491 0-.007 0-.014 0-.021 0l-.223-.955-2.013.473.223.957c-.193.084-.383.18-.562.283-.51.295-.963.662-1.349 1.088l-.833-.516-1.09 1.758.832.516c-.283.725-.418 1.514-.38 2.32l-.954.225.473 2.014.954-.223c.325.74.796 1.387 1.372 1.91l-.517.832 1.757 1.092.518-.834c.727.285 1.514.418 2.322.381l.224.955 2.014-.473-.224-.953c.194-.088.383-.182.563-.285.508-.295.961-.664 1.347-1.09l.834.518 1.09-1.758-.832-.518c.282-.724.418-1.513.38-2.32zm-3.562 3.885c-.349.201-.731.355-1.143.451-2.249.529-4.501-.867-5.028-3.117-.431-1.838.422-3.674 1.975-4.576.348-.199.731-.354 1.145-.451.236-.057.473-.09.709-.104.164-.012.329-.012.491 0 1.8.105 3.396 1.375 3.827 3.223.429 1.836-.422 3.674-1.976 4.574z" fill="#88d0d8"/><path d="m74.571 118.348.954-.225-.473-2.014-.954.225c-.324-.74-.797-1.387-1.372-1.91l.517-.834-1.758-1.09-.518.834c-.57-.223-1.182-.355-1.81-.383-.163-.008-.327-.008-.492 0-.007 0-.014.002-.019.002l-.225-.955-2.014.473.225.955c-.194.084-.383.18-.563.285-.509.293-.962.662-1.348 1.086l-.834-.516-1.09 1.758.833.516c-.283.727-.418 1.514-.38 2.322l-.954.223.471 2.016.955-.225c.325.74.797 1.387 1.373 1.91l-.518.834 1.758 1.092.518-.836c.726.283 1.514.42 2.322.381l.224.955 2.013-.473-.224-.953c.195-.086.384-.182.564-.285.509-.295.96-.664 1.347-1.088l.834.517 1.09-1.76-.833-.516c.284-.724.419-1.513.381-2.321zm-3.56 3.886c-.348.199-.732.355-1.145.451-2.249.527-4.5-.869-5.028-3.117-.431-1.838.423-3.676 1.975-4.576.349-.203.732-.357 1.144-.453.238-.055.475-.09.71-.104.165-.01.329-.01.492 0 1.8.104 3.394 1.377 3.827 3.223.429 1.838-.423 3.674-1.975 4.576z" fill="#88d0d8"/><path d="m111.634 119.354.639.012.025-1.348-.64-.012c-.087-.521-.282-1.006-.562-1.428l.461-.445-.937-.973-.46.445c-.326-.232-.691-.414-1.084-.531-.102-.031-.205-.059-.311-.082-.004 0-.009 0-.013 0l.013-.641-1.35-.025-.012.641c-.137.021-.272.053-.402.09-.369.104-.713.264-1.026.471l-.444-.461-.971.938.443.459c-.295.412-.508.891-.613 1.408l-.639-.014-.026 1.352.64.01c.086.521.279 1.006.561 1.43l-.461.443.937.971.462-.443c.412.297.889.508 1.406.615l-.012.639 1.348.025.012-.641c.138-.021.272-.053.403-.09.368-.104.714-.266 1.026-.471l.443.461.973-.938-.444-.459c.296-.414.507-.891.615-1.408zm-2.877 1.884c-.252.072-.519.107-.796.102-1.507-.027-2.705-1.271-2.678-2.777.022-1.232.857-2.256 1.983-2.576.252-.072.52-.107.796-.101.159.002.313.019.466.047.105.02.21.047.311.08 1.121.354 1.924 1.414 1.901 2.65-.022 1.232-.856 2.255-1.983 2.575z" fill="#88d0d8"/><path d="m109.686 70.361 1.339-.314-.662-2.824-1.339.312c-.455-1.037-1.117-1.943-1.926-2.678l.725-1.17-2.465-1.529-.726 1.17c-.801-.314-1.657-.498-2.539-.535-.228-.012-.459-.012-.69 0-.008 0-.02.002-.027.002l-.312-1.342-2.824.662.313 1.34c-.272.119-.536.254-.79.4-.715.414-1.35.93-1.891 1.525l-1.17-.725-1.528 2.467 1.168.723c-.396 1.02-.587 2.123-.532 3.256l-1.34.316.662 2.824 1.34-.314c.455 1.039 1.115 1.945 1.925 2.682l-.725 1.168 2.465 1.529.726-1.17c1.018.4 2.124.588 3.257.533l.313 1.342 2.824-.664-.313-1.338c.274-.121.538-.254.792-.4.713-.414 1.347-.93 1.889-1.525l1.17.725 1.527-2.467-1.168-.725c.396-1.017.586-2.123.532-3.256zm-4.995 5.45c-.488.283-1.026.5-1.604.635-3.155.74-6.314-1.219-7.054-4.373-.604-2.578.592-5.156 2.77-6.418.488-.283 1.027-.5 1.604-.635.333-.078.664-.127.995-.145.231-.016.463-.016.69-.004 2.526.15 4.761 1.932 5.368 4.521.605 2.579-.59 5.155-2.769 6.419z" fill="#88d0d8"/><path d="m96.575 58.781.732-.172-.361-1.545-.733.172c-.249-.568-.61-1.064-1.053-1.465l.396-.641-1.35-.836-.395.639c-.439-.17-.908-.271-1.391-.293-.125-.006-.25-.006-.377 0-.005 0-.011.002-.016.002l-.17-.734-1.547.363.173.732c-.149.065-.294.139-.433.219-.391.227-.737.508-1.033.834l-.641-.397-.836 1.348.639.398c-.217.557-.32 1.16-.291 1.779l-.732.174.362 1.545.732-.172c.249.568.609 1.066 1.053 1.467l-.396.639 1.349.838.397-.641c.558.219 1.162.322 1.782.293l.173.733 1.543-.363-.17-.73c.148-.068.293-.141.432-.219.391-.227.737-.51 1.034-.836l.64.396.836-1.348-.639-.398c.217-.556.32-1.162.291-1.781zm-2.732 2.981c-.268.156-.562.275-.878.35-1.725.404-3.454-.668-3.858-2.395-.33-1.41.324-2.818 1.516-3.512.267-.154.562-.271.877-.346.184-.043.363-.068.545-.08.127-.008.252-.008.377 0 1.382.08 2.606 1.055 2.938 2.473.328 1.41-.326 2.82-1.517 3.51z" fill="#88d0d8"/><path d="m83.563 94.256-1.669-.523c-.423-.133-.823-.598-.896-1.035 0 0-.052-.334-.197-.902-.152-.561-.27-.881-.27-.881-.146-.41-.029-1.014.277-1.334l1.201-1.283c.3-.32.364-.902.146-1.281l-.773-1.201c-.255-.365-.809-.539-1.223-.4l-.547.182-1.108.379c-.424.137-1.033.006-1.354-.299l-.757-.619-.664-.547c-.365-.256-.612-.824-.553-1.268l.218-1.727c.058-.445-.226-.953-.634-1.131l-1.332-.524c-.424-.139-.978.037-1.232.395l-1.013 1.428c-.255.363-.823.611-1.26.553l-.22-.014-1.631-.094c-.438.006-.969-.307-1.181-.693l-.103-.189-.734-1.348c-.219-.387-.744-.641-1.188-.561 0 0-.205.043-.692.174-.503.133-.692.191-.692.191-.422.145-.758.625-.75 1.062l.015 1.748c.007.438-.306.984-.692 1.193l-1.559 1c-.357.254-.969.318-1.377.131l-1.574-.742c-.399-.191-.969-.074-1.267.254l-.911 1.107c-.27.357-.262.939 0 1.295l1.041 1.4c.262.355.328.969.139 1.377l-.67 1.711c-.131.424-.597.832-1.026.918l-1.728.328c-.43.08-.83.512-.866.947l-.095 1.43c0 .436.342.908.764 1.041l1.669.524c.423.131.823.598.896 1.035 0 0 .058.342.196.904.153.566.271.889.271.889.151.406.036 1.01-.271 1.338l-1.202 1.275c-.306.322-.371.896-.153 1.275l.773 1.209c.255.357.809.533 1.23.4l1.654-.561c.422-.146 1.027-.006 1.348.291l1.428 1.166c.357.262.611.83.554 1.268l-.226 1.727c-.051.445.226.953.633 1.137l1.341.517c.415.146.969-.037 1.231-.4l1.005-1.422c.255-.363.831-.611 1.268-.545l1.843.102c.444 0 .977.305 1.188.699l.846 1.529c.204.387.735.635 1.172.561 0 0 .205-.035.701-.168.501-.129.691-.195.691-.195.416-.146.75-.627.75-1.064l-.014-1.74c-.008-.451.305-.984.691-1.203l1.552-.99c.356-.262.976-.32 1.377-.139l1.58.744c.401.188.969.08 1.269-.256l.909-1.107c.263-.357.255-.934-.007-1.289l-1.041-1.398c-.262-.357-.321-.977-.131-1.385l.662-1.711c.139-.418.598-.832 1.035-.912l1.719-.328c.437-.078.83-.51.873-.945l.088-1.436c.003-.437-.339-.911-.761-1.044zm-13.011 9.617c-4.859 1.273-9.827-1.641-11.095-6.498-1.268-4.852 1.632-9.82 6.491-11.086 2.775-.73 5.58-.09 7.715 1.492.246.18.48.379.698.59.212.182.416.379.599.59.211.225.4.451.59.707.677.904 1.187 1.951 1.493 3.109 1.267 4.86-1.64 9.828-6.491 11.096z" fill="#adebf6"/><path d="m74.508 93.447c-.175-.697-.466-1.332-.838-1.906-.495-.766-1.143-1.4-1.888-1.881-1.471-.961-3.336-1.334-5.171-.844-3.468.9-5.537 4.434-4.626 7.912.902 3.457 4.436 5.535 7.911 4.631 3.46-.91 5.522-4.451 4.612-7.912zm-5.66 3.891c-1.253.32-2.536-.416-2.856-1.66-.327-1.26.423-2.529 1.676-2.855.328-.088.678-.104.99-.037.867.152 1.604.801 1.851 1.713.015.057.029.117.029.174.225 1.179-.511 2.352-1.69 2.665z" fill="#adebf6"/><path d="m83.563 94.256-1.669-.523c-.423-.133-.823-.598-.896-1.035 0 0-.052-.334-.197-.902-.152-.561-.27-.881-.27-.881-.146-.41-.029-1.014.277-1.334l1.201-1.283c.3-.32.364-.902.146-1.281l-.773-1.201c-.255-.365-.809-.539-1.223-.4l-.547.182-1.108.379c-.424.137-1.033.006-1.354-.299l-.757-.619-.664-.547c-.365-.256-.612-.824-.553-1.268l.218-1.727c.058-.445-.226-.953-.634-1.131l-1.332-.524c-.424-.139-.978.037-1.232.395l-1.013 1.428c-.255.363-.823.611-1.26.553l-.22-.014-1.631-.094c-.438.006-.969-.307-1.181-.693l-.103-.189-.734-1.348c-.219-.387-.744-.641-1.188-.561 0 0-.205.043-.692.174-.503.133-.692.191-.692.191-.422.145-.758.625-.75 1.062l.015 1.748c.007.438-.306.984-.692 1.193l-1.559 1c-.357.254-.969.318-1.377.131l-1.574-.742c-.399-.191-.969-.074-1.267.254l-.911 1.107c-.27.357-.262.939 0 1.295l1.041 1.4c.262.355.328.969.139 1.377l-.67 1.711c-.131.424-.597.832-1.026.918l-1.728.328c-.43.08-.83.512-.866.947l-.095 1.43c0 .436.342.908.764 1.041l1.669.524c.423.131.823.598.896 1.035 0 0 .058.342.196.904.153.566.271.889.271.889.151.406.036 1.01-.271 1.338l-1.202 1.275c-.306.322-.371.896-.153 1.275l.773 1.209c.255.357.809.533 1.23.4l1.654-.561c.422-.146 1.027-.006 1.348.291l1.428 1.166c.357.262.611.83.554 1.268l-.226 1.727c-.051.445.226.953.633 1.137l1.341.517c.415.146.969-.037 1.231-.4l1.005-1.422c.255-.363.831-.611 1.268-.545l1.843.102c.444 0 .977.305 1.188.699l.846 1.529c.204.387.735.635 1.172.561 0 0 .205-.035.701-.168.501-.129.691-.195.691-.195.416-.146.75-.627.75-1.064l-.014-1.74c-.008-.451.305-.984.691-1.203l1.552-.99c.356-.262.976-.32 1.377-.139l1.58.744c.401.188.969.08 1.269-.256l.909-1.107c.263-.357.255-.934-.007-1.289l-1.041-1.398c-.262-.357-.321-.977-.131-1.385l.662-1.711c.139-.418.598-.832 1.035-.912l1.719-.328c.437-.078.83-.51.873-.945l.088-1.436c.003-.437-.339-.911-.761-1.044zm-13.011 9.617c-4.859 1.273-9.827-1.641-11.095-6.498-1.268-4.852 1.632-9.82 6.491-11.086 2.775-.73 5.58-.09 7.715 1.492.246.18.48.379.698.59.212.182.416.379.599.59.211.225.4.451.59.707.677.904 1.187 1.951 1.493 3.109 1.267 4.86-1.64 9.828-6.491 11.096z" fill="#88d0d8"/><path d="m74.508 93.447c-.175-.697-.466-1.332-.838-1.906-.495-.766-1.143-1.4-1.888-1.881-1.471-.961-3.336-1.334-5.171-.844-3.468.9-5.537 4.434-4.626 7.912.902 3.457 4.436 5.535 7.911 4.631 3.46-.91 5.522-4.451 4.612-7.912zm-5.66 3.891c-1.253.32-2.536-.416-2.856-1.66-.327-1.26.423-2.529 1.676-2.855.328-.088.678-.104.99-.037.867.152 1.604.801 1.851 1.713.015.057.029.117.029.174.225 1.179-.511 2.352-1.69 2.665z" fill="#88d0d8"/><path d="m120.478 92.686.962-.336c-.014-.311-.035-.621-.066-.928l-1-.191c-.026-.18-.057-.365-.093-.547l.882-.504c-.066-.303-.146-.604-.236-.898l-1.015-.008c-.06-.176-.12-.35-.189-.521l.772-.654c-.119-.287-.256-.566-.395-.842l-1.002.18c-.09-.16-.185-.318-.283-.475l.642-.791c-.169-.258-.354-.506-.546-.75l-.945.363c-.118-.143-.238-.283-.369-.42l.484-.891c-.217-.219-.438-.436-.674-.639l-.867.533c-.14-.121-.287-.234-.436-.346l.311-.965c-.123-.09-.252-.18-.381-.264-.131-.084-.266-.166-.4-.242l-.75.682c-.163-.092-.33-.18-.495-.262l.133-1.006c-.284-.129-.573-.246-.858-.352l-.616.807c-.177-.061-.356-.115-.534-.166l-.056-1.01c-.303-.076-.605-.141-.911-.191l-.457.91c-.172-.027-.345-.045-.515-.059-.013-.002-.023-.004-.036-.004l-.242-.984c-.093-.008-.184-.012-.271-.014-.103-.004-.205-.008-.309-.008-.117-.002-.234-.002-.351 0l-.197.695-.084.283c-.182.006-.369.02-.554.039l-.419-.924c-.309.039-.615.09-.92.152l-.097 1.012c-.179.041-.36.09-.538.143l-.584-.834c-.295.096-.584.203-.871.318l.088 1.014c-.172.074-.338.152-.501.236l-.728-.713c-.272.148-.539.307-.798.475l.272.977c-.152.105-.301.213-.448.328l-.847-.566c-.237.195-.469.399-.697.613l.449.912c-.129.129-.258.262-.381.402l-.936-.398c-.196.234-.393.475-.574.73l.611.812c-.053.076-.106.152-.156.23-.048.076-.1.158-.146.236l-.993-.225c-.155.271-.296.549-.429.824l.746.689c-.075.17-.146.34-.213.514l-1.016-.035c-.1.293-.193.588-.272.887l.863.537c-.043.182-.082.365-.113.547l-1.006.15c-.043.307-.082.613-.101.922l.945.369c-.008.186-.013.369-.011.557l-.957.334c.009.311.027.621.065.928l.997.189c.025.184.056.367.091.549l-.881.506c.066.301.145.6.238.898l1.018.004c.055.176.119.35.188.521l-.776.658c.119.285.255.562.396.84l1-.184c.092.164.185.32.283.477l-.642.793c.169.256.357.506.546.75l.951-.365c.115.145.234.283.361.42l-.482.893c.214.221.441.434.674.641l.867-.533c.139.117.287.23.436.344l-.311.965c.125.088.252.178.385.262.129.086.262.166.395.244l.754-.682c.166.092.328.178.493.26l-.13 1.008c.285.131.568.246.858.35l.615-.805c.177.061.356.111.532.164l.057 1.01c.305.078.604.141.909.193l.457-.912c.185.029.368.051.553.064l.241.984c.313.018.623.029.932.023l.283-.979c.183-.01.367-.023.552-.041l.421.926c.307-.041.613-.094.918-.156l.097-1.008c.183-.043.361-.09.54-.145l.583.834c.296-.094.583-.203.873-.32l-.091-1.012c.172-.074.338-.152.506-.238l.725.713c.271-.145.537-.307.796-.475l-.272-.976c.152-.104.303-.211.451-.326l.843.564c.239-.195.474-.398.698-.611l-.448-.908c.133-.133.257-.268.382-.404l.931.396c.202-.234.395-.477.577-.73l-.609-.812c.051-.078.104-.154.154-.232.053-.078.1-.154.146-.234l.994.223c.154-.271.296-.549.429-.824l-.747-.686c.074-.172.146-.342.21-.516l1.019.035c.1-.293.189-.59.271-.887l-.86-.539c.04-.18.079-.363.112-.545l1.002-.15c.047-.309.084-.615.107-.922l-.949-.371c.009-.181.013-.367.011-.55zm-5.422-7.473c1.779 1.289 2.979 3.111 3.518 5.1l-5.958 1.279c-.183-.479-.476-.91-.87-1.262zm-5.889-1.758c.285-.016.568-.016.857 0 1.439.064 2.877.463 4.201 1.221l-3.312 5.121c-.483-.219-.997-.309-1.503-.279l-1.281-5.959c.343-.053.69-.09 1.038-.104zm-2.005.313 1.282 5.957c-.436.166-.84.426-1.18.775-.027.029-.056.062-.085.094l-5.114-3.309c1.287-1.781 3.108-2.978 5.097-3.517zm-5.636 4.347 5.114 3.307c-.212.479-.303.996-.274 1.51l-5.955 1.277c-.324-2.037.021-4.189 1.115-6.094zm2.608 12.156c-1.779-1.289-2.978-3.105-3.516-5.096l5.954-1.275c.167.428.425.832.774 1.17.032.031.066.059.098.086zm.831.54 3.312-5.117c.268.121.556.209.848.252.221.031.439.037.656.025l1.279 5.957c-2.038.326-4.185-.022-6.095-1.117zm7.062.91-1.282-5.959c.482-.182.918-.479 1.262-.867l5.117 3.311c-1.287 1.78-3.109 2.978-5.097 3.515zm5.633-4.348-5.116-3.309c.219-.486.308-1.002.277-1.508l5.957-1.275c.324 2.037-.019 4.186-1.118 6.092z" fill="#88d0d8"/><path d="m120.656 110.459h-5.651c-.177 0-.32-.145-.32-.32 0-.178.144-.32.32-.32h5.651c.178 0 .32.143.32.32.001.175-.142.32-.32.32z" fill="#363f4a"/><path d="m122.526 112.861h-1.915c-.177 0-.319-.142-.319-.32 0-.176.143-.32.319-.32h1.915c.177 0 .32.145.32.32.001.178-.143.32-.32.32z" fill="#363f4a"/><path d="m125.931 112.861h-1.915c-.177 0-.32-.142-.32-.32 0-.176.144-.32.32-.32h1.915c.177 0 .32.145.32.32 0 .178-.144.32-.32.32z" fill="#363f4a"/><path d="m121.568 113.818c-.177 0-.319-.143-.319-.318v-1.916c0-.176.143-.32.319-.32.177 0 .321.145.321.32v1.916c.001.176-.144.318-.321.318z" fill="#363f4a"/><path d="m68.269 95.443h-.744c-.164 0-.297-.133-.297-.295 0-.166.133-.301.297-.301h.744c.163 0 .296.135.296.301-.001.163-.133.295-.296.295z" fill="#363f4a"/><path d="m66.171 95.443h-1.352c-.165 0-.299-.133-.299-.295 0-.166.134-.301.299-.301h1.352c.164 0 .299.135.299.301 0 .163-.135.295-.299.295zm-2.705 0h-1.353c-.164 0-.297-.133-.297-.295 0-.166.133-.301.297-.301h1.353c.164 0 .297.135.297.301 0 .163-.133.295-.297.295zm-2.706 0h-1.353c-.164 0-.297-.133-.297-.295 0-.166.133-.301.297-.301h1.353c.163 0 .298.135.298.301 0 .163-.135.295-.298.295z" fill="#363f4a"/><path d="m58.054 95.443h-.744c-.164 0-.297-.133-.297-.295 0-.166.133-.301.297-.301h.744c.165 0 .298.135.298.301 0 .163-.133.295-.298.295z" fill="#363f4a"/><path d="m59.211 93.76h-5.247c-.164 0-.298-.133-.298-.297s.134-.299.298-.299h5.247c.163 0 .298.135.298.299s-.135.297-.298.297z" fill="#363f4a"/><path d="m54.006 91.529h-1.778c-.164 0-.297-.135-.297-.299 0-.162.133-.297.297-.297h1.778c.163 0 .298.135.298.297 0 .165-.135.299-.298.299z" fill="#363f4a"/><path d="m50.845 91.529h-1.776c-.165 0-.298-.135-.298-.299 0-.162.133-.297.298-.297h1.776c.165 0 .298.135.298.297 0 .165-.133.299-.298.299z" fill="#363f4a"/><path d="m53.117 92.418c-.164 0-.298-.135-.298-.297v-1.779c0-.164.134-.295.298-.295s.298.131.298.295v1.779c0 .162-.134.297-.298.297z" fill="#363f4a"/><path d="m102.011 81.465c1.246-2.092 1.975-4.527 1.975-7.141 0-7.723-6.26-13.986-13.986-13.986-7.724 0-13.984 6.264-13.984 13.986 0 2.613.729 5.049 1.975 7.141h-.053c5.736 8.889 5.141 12.965 5.141 12.965h6.922 6.924s-.598-4.076 5.139-12.965z" fill="#fff"/><path d="m89.999 94.604h-6.922v3.576l1.467 2.552h5.455 5.457l1.467-2.552v-3.576z" fill="#565656"/><g fill="#333"><path d="m97.659 94.119c0 .328-.251.598-.564.598h-14.19c-.313 0-.565-.269-.565-.598 0-.328.252-.598.565-.598h14.189c.314 0 .565.27.565.598z"/><path d="m97.659 96.289c0 .328-.251.596-.564.596h-14.19c-.313 0-.565-.268-.565-.596 0-.33.252-.598.565-.598h14.189c.314 0 .565.268.565.598z"/><path d="m96.298 98.84c0 .271-.21.49-.465.49h-11.663c-.258 0-.464-.219-.464-.49 0-.27.206-.49.464-.49h11.663c.255 0 .465.22.465.49z"/><path d="m92.729 85.373v10.979h.6v-10.979c.291-.117.497-.404.497-.736 0-.441-.358-.797-.798-.797-.439 0-.796.355-.796.797 0 .332.206.619.497.736z"/><path d="m86.672 85.373v10.979h.601v-10.979c.291-.117.496-.404.496-.736 0-.441-.357-.797-.797-.797-.439 0-.796.355-.796.797 0 .332.205.619.496.736z"/><path d="m73.22 84.584c.082 0 .164.029.227.092.126.125.126.328 0 .453l-5.632 5.633c-.126.125-.329.125-.454 0s-.125-.328 0-.453l5.632-5.633c.062-.063.145-.092.227-.092z"/><path d="m89.948 43.58c.178 0 .321.145.321.324v7.963c0 .178-.144.32-.321.32-.178 0-.322-.143-.322-.32v-7.963c0-.179.144-.324.322-.324z"/><path d="m69.837 76.885c.15 0 .283.103.315.256.037.172-.074.344-.248.379l-7.795 1.637c-.175.037-.345-.074-.381-.248s.074-.344.249-.381l7.794-1.637c.022-.004.044-.006.066-.006z"/><path d="m67.588 54.242c.082 0 .165.031.226.094l5.632 5.633c.126.125.126.328 0 .455-.125.125-.328.125-.454 0l-5.632-5.635c-.125-.125-.125-.328 0-.453.063-.063.147-.094.228-.094z"/><path d="m76.827 47.123c.114 0 .223.059.282.166l3.858 6.969c.086.154.029.35-.125.436-.156.086-.352.029-.437-.125l-3.857-6.969c-.086-.154-.03-.352.125-.438.049-.027.102-.039.154-.039z"/><path d="m103.677 47.123c.053 0 .107.012.155.039.155.086.212.283.126.438l-3.859 6.969c-.084.154-.28.211-.436.125-.155-.086-.211-.281-.125-.436l3.857-6.969c.059-.107.168-.166.282-.166z"/><path d="m62.042 65.934c.021 0 .043.002.066.008l7.795 1.637c.174.035.285.207.248.379-.037.174-.206.287-.381.25l-7.794-1.639c-.175-.033-.285-.205-.249-.377.032-.155.166-.258.315-.258z"/><path d="m106.78 84.584c.082 0 .165.029.228.092l5.631 5.633c.126.125.126.328 0 .453-.125.125-.329.125-.455 0l-5.631-5.633c-.125-.125-.125-.328 0-.453.063-.063.145-.092.227-.092z"/><path d="m110.163 76.885c.021 0 .045.002.066.006l7.795 1.637c.174.037.285.207.249.381-.037.174-.208.285-.382.248l-7.795-1.637c-.172-.035-.284-.207-.248-.379.033-.153.167-.256.315-.256z"/><path d="m112.413 54.242c.082 0 .164.031.227.094.126.125.126.328 0 .453l-5.631 5.635c-.126.125-.33.125-.455 0-.125-.127-.125-.33 0-.455l5.631-5.633c.064-.063.146-.094.228-.094z"/><path d="m117.958 65.934c.15 0 .283.104.315.258.036.172-.075.344-.249.377l-7.795 1.639c-.174.035-.344-.076-.381-.25-.036-.172.076-.344.248-.379l7.795-1.637c.023-.006.045-.008.067-.008z"/><path d="m116.124 148.018c-7.971 3.594-16.814 5.596-26.125 5.596-5.446 0-10.734-.686-15.781-1.977 3.957-4.322 11.711-10.195 11.83-12.658.153-3.189-1.512-9.355-9.427-8.621-7.913.73-8.574-6.783-7.677-7.68 1.291-1.291 0-2.031 0-2.031s-1.418-.756-1.418-1.371c0-.613.851-1.465.851-1.465-1.797 0-1.465-1.795-1.465-1.795s.896-3.072-1.465-3.072c-2.363 0-2.269-2.125-2.032-3.023.236-.898 3.732-6.852 4.394-8.08.662-1.229-1.322-2.361-1.984-4.252-.07-.197-.119-.453-.15-.744h48.714c-.05 7.191-4.087 12.717-4.087 12.717s-4.662 4.535-4.662 10.33c0 5.797-.363 12.109 5.67 18.145 2.802 2.799 4.164 6.633 4.814 9.981z"/></g><path d="m97.702 66.947c-.102-1.682-1.307-3.117-2.984-3.486-.746-.164-1.53-.1-2.234.184-.522-.553-1.203-.941-1.951-1.105-.271-.061-.547-.09-.823-.09-.819 0-1.617.266-2.274.754-.091-.027-.184-.051-.277-.072-.271-.059-.549-.09-.823-.09-1.774 0-3.34 1.26-3.722 2.994-.033.15-.059.305-.072.461-1.33.389-2.352 1.467-2.655 2.842-.219.994-.038 2.014.511 2.873.549.857 1.398 1.453 2.393 1.67.441.1.898.117 1.342.055.541.885 1.408 1.508 2.433 1.734.634.141 1.294.113 1.906-.068-.054.809.149 1.607.593 2.303.549.859 1.398 1.453 2.393 1.674.271.059.549.088.824.088.998 0 1.949-.391 2.659-1.082.081.021.163.043.245.061.27.061.548.09.822.09 1.774 0 3.34-1.258 3.722-2.994.208-.94.05-1.916-.431-2.74.403-.473.684-1.037.819-1.65.414-1.896-.633-3.759-2.416-4.406z" fill="#ff916e"/><path d="m92.343 65.986.23-.08c-.003-.074-.009-.146-.017-.221l-.238-.047c-.007-.041-.014-.086-.021-.129l.21-.121c-.017-.072-.035-.143-.057-.215h-.241c-.016-.045-.029-.086-.047-.127l.186-.156c-.028-.068-.061-.135-.094-.199l-.24.043c-.021-.039-.043-.076-.068-.113l.154-.189c-.041-.062-.084-.121-.131-.18l-.227.086c-.027-.033-.056-.066-.087-.1l.116-.213c-.052-.051-.105-.103-.162-.15l-.208.125c-.033-.027-.068-.057-.104-.08l.074-.232c-.029-.02-.061-.041-.091-.062-.032-.02-.063-.039-.096-.057l-.179.162c-.039-.021-.08-.043-.119-.062l.032-.24c-.067-.031-.137-.061-.206-.084l-.146.191c-.042-.012-.085-.027-.128-.039l-.014-.24c-.072-.018-.145-.033-.217-.047l-.109.217c-.041-.006-.082-.01-.123-.014-.003 0-.006 0-.009 0l-.058-.236c-.021 0-.043-.002-.064-.002-.024 0-.049 0-.074 0-.027-.002-.057-.002-.084 0l-.047.164-.02.066c-.045.002-.089.006-.133.01l-.1-.219c-.074.008-.146.02-.219.035l-.024.24c-.043.012-.085.024-.128.035l-.141-.199c-.07.023-.139.049-.207.076l.021.242c-.042.018-.081.035-.121.057l-.173-.17c-.065.035-.128.072-.19.113l.064.232c-.035.025-.07.053-.106.078l-.202-.135c-.057.045-.112.096-.166.146l.108.217c-.031.031-.063.064-.092.098l-.224-.096c-.047.057-.093.115-.138.174l.146.195c-.012.018-.024.035-.037.055-.011.018-.023.037-.035.055l-.236-.051c-.037.064-.071.129-.104.195l.18.164c-.018.041-.035.08-.051.123l-.243-.008c-.024.068-.046.141-.066.211l.207.129c-.01.043-.02.086-.027.131l-.24.035c-.01.072-.02.146-.025.219l.227.09c-.002.043-.003.088-.002.133l-.229.08c.002.074.006.148.016.223l.238.043c.006.045.012.088.022.133l-.211.119c.016.072.035.143.058.215l.242.002c.014.041.029.082.046.123l-.186.158c.027.068.061.133.094.199l.239-.043c.022.039.044.076.067.113l-.148.19c.039.061.084.121.13.18l.227-.088c.027.035.057.068.087.1l-.115.213c.051.053.105.104.16.154l.208-.127c.033.027.067.055.104.08l-.074.23c.03.021.061.043.093.064.031.02.062.037.094.057l.18-.162c.039.023.078.043.118.062l-.032.24c.069.033.137.059.205.084l.148-.191c.041.014.084.025.127.039l.014.24c.072.02.143.033.217.047l.109-.219c.043.006.086.014.131.016l.058.236c.075.002.149.006.224.004l.066-.232c.044-.002.088-.006.132-.01l.101.221c.073-.01.146-.023.22-.037l.022-.24c.044-.012.086-.024.129-.035l.139.199c.072-.021.141-.049.209-.078l-.021-.24c.041-.018.08-.035.121-.057l.173.17c.066-.035.128-.074.191-.113l-.066-.232c.037-.025.072-.051.107-.08l.203.137c.057-.047.112-.096.166-.146l-.107-.217c.032-.031.062-.064.092-.098l.222.096c.048-.057.095-.113.138-.176l-.146-.193c.013-.018.024-.037.036-.055.013-.02.024-.035.036-.055l.237.051c.037-.064.07-.129.102-.195l-.178-.164c.018-.041.035-.082.05-.123l.243.008c.023-.068.045-.141.064-.211l-.205-.129c.01-.043.02-.088.027-.131l.239-.035c.011-.072.019-.146.025-.219l-.226-.09c-.002-.046-.001-.089-.001-.134zm-1.295-1.783c.424.309.711.742.84 1.217l-1.423.307c-.043-.115-.113-.219-.207-.303zm-1.406-.42c.068-.004.135-.004.205 0 .344.016.686.111 1.002.291l-.79 1.223c-.114-.051-.237-.074-.358-.066l-.307-1.422c.082-.014.165-.022.248-.026zm-.479.074.307 1.422c-.104.039-.201.102-.282.186-.007.008-.013.016-.021.021l-1.221-.789c.307-.426.742-.713 1.217-.84zm-1.346 1.039 1.221.789c-.051.115-.072.238-.064.359l-1.422.307c-.078-.488.004-.999.265-1.455zm.623 2.901c-.425-.305-.711-.74-.84-1.215l1.422-.305c.039.102.102.199.185.279.007.008.017.012.022.021zm.199.129.79-1.221c.064.029.133.049.203.059.053.008.105.01.156.008l.307 1.422c-.489.077-1-.006-1.456-.268zm1.686.219-.307-1.422c.115-.045.219-.117.301-.207l1.223.789c-.308.425-.743.711-1.217.84zm1.345-1.04-1.222-.789c.053-.117.072-.24.066-.359l1.422-.307c.079.487-.003 1-.266 1.455z" fill="#fff"/><path d="m84.761 68.961.103-.035c-.002-.033-.004-.066-.007-.098l-.105-.021c-.004-.02-.007-.039-.01-.057l.093-.055c-.007-.031-.015-.062-.026-.096h-.106c-.007-.02-.013-.037-.02-.055l.082-.068c-.013-.031-.028-.062-.042-.09l-.107.02c-.008-.018-.02-.035-.029-.051l.068-.084c-.018-.027-.037-.053-.059-.078l-.1.037c-.012-.014-.025-.029-.039-.045l.051-.094c-.021-.023-.046-.047-.07-.068l-.092.057c-.015-.012-.031-.025-.047-.035l.033-.104c-.014-.008-.026-.018-.04-.027-.015-.01-.028-.018-.042-.025l-.08.072c-.017-.01-.035-.02-.053-.027l.014-.107c-.029-.014-.061-.027-.09-.037l-.066.086c-.018-.006-.037-.014-.056-.018l-.006-.107c-.032-.008-.063-.016-.097-.02l-.048.096c-.019-.002-.037-.004-.055-.006 0 0-.003-.002-.004-.002l-.026-.104c-.009-.002-.019-.002-.028-.002-.011 0-.021 0-.032 0-.013 0-.024 0-.038 0l-.021.074-.009.029c-.019 0-.039.002-.059.004l-.044-.098c-.033.006-.065.01-.098.016l-.011.107c-.019.006-.038.01-.056.016l-.062-.088c-.031.01-.062.021-.092.033l.01.107c-.02.008-.036.016-.054.023l-.077-.074c-.029.016-.058.033-.084.051l.027.104c-.016.01-.031.023-.047.035l-.09-.061c-.025.02-.049.043-.073.064l.048.096c-.015.014-.027.029-.041.043l-.1-.041c-.02.025-.041.049-.061.076l.066.086c-.007.01-.013.016-.018.025-.006.008-.01.016-.016.025l-.105-.023c-.016.027-.03.057-.045.086l.079.074c-.009.018-.016.035-.022.053l-.107-.004c-.011.033-.019.064-.029.094l.092.059c-.005.02-.009.037-.012.057l-.106.018c-.005.033-.009.065-.011.098l.1.037c0 .021-.001.041-.001.059l-.101.035c0 .035.002.066.006.1l.105.02c.004.02.006.039.011.059l-.095.053c.008.033.016.065.025.096h.108c.005.02.013.039.021.057l-.084.068c.014.031.027.059.043.088l.105-.018c.01.018.021.033.031.049l-.068.084c.018.027.037.055.058.082l.101-.039c.012.014.025.029.039.043l-.051.096c.021.023.045.045.07.066l.092-.057c.015.014.031.025.045.037l-.031.102c.014.01.026.02.041.029.014.008.026.018.041.025l.08-.072c.018.01.035.018.052.027l-.014.107c.03.012.06.025.091.037l.065-.086c.019.006.037.012.056.018l.006.107c.033.008.064.014.098.02l.047-.096c.021.004.04.004.059.006l.025.104c.033.002.066.004.1.004l.029-.105c.02 0 .039-.002.059-.004l.045.1c.033-.004.064-.012.097-.018l.011-.107c.02-.004.038-.01.057-.014l.062.088c.031-.01.062-.021.092-.033l-.009-.107c.017-.01.035-.018.053-.027l.077.076c.027-.014.057-.031.084-.049l-.028-.105c.016-.01.031-.021.048-.033l.088.061c.025-.021.051-.043.074-.064l-.047-.098c.014-.014.026-.029.041-.043l.098.043c.021-.025.041-.051.061-.078l-.063-.086c.005-.006.011-.016.017-.023.006-.01.01-.016.015-.025l.106.023c.017-.029.03-.059.046-.088l-.08-.072c.009-.018.016-.035.023-.055l.107.004c.01-.031.021-.062.029-.094l-.092-.057c.004-.02.008-.039.012-.059l.105-.016c.006-.031.009-.065.012-.096l-.1-.041c-.001-.022-.001-.042-.001-.061zm-.575-.791c.189.137.316.328.373.541l-.631.135c-.02-.051-.051-.096-.092-.133zm-.623-.186c.03-.002.061-.002.091 0 .153.006.305.049.445.129l-.351.541c-.051-.021-.105-.033-.16-.027l-.135-.633c.037-.004.073-.008.11-.01zm-.211.034.136.629c-.047.018-.089.047-.125.084-.002.002-.005.006-.01.01l-.54-.352c.135-.188.329-.315.539-.371zm-.597.459.541.352c-.021.049-.031.104-.028.158l-.63.137c-.036-.218.002-.444.117-.647zm.275 1.289c-.188-.139-.315-.33-.371-.541l.629-.135c.02.045.046.088.083.125.003.002.007.004.01.008zm.088.054.352-.541c.027.014.059.021.09.027.023.004.047.004.068.002l.137.631c-.216.036-.444-.001-.647-.119zm.748.096-.135-.629c.051-.02.097-.051.133-.092l.541.35c-.136.189-.328.316-.539.371zm.596-.459-.541-.35c.023-.053.032-.105.029-.16l.631-.135c.035.215-.002.444-.119.645z" fill="#fff"/><path d="m98.864 69.23.121-.041c-.002-.041-.004-.078-.008-.119l-.127-.023c-.003-.021-.007-.045-.012-.068l.111-.062c-.008-.039-.019-.076-.029-.113l-.129-.002c-.007-.021-.014-.045-.022-.064l.097-.082c-.015-.037-.032-.074-.05-.107l-.126.021c-.012-.02-.023-.041-.037-.06l.082-.1c-.021-.033-.045-.064-.068-.096l-.119.047c-.015-.017-.03-.035-.047-.053l.062-.111c-.028-.029-.056-.057-.085-.082l-.109.066c-.019-.016-.037-.029-.056-.043l.04-.121c-.016-.012-.032-.021-.049-.033-.016-.01-.033-.021-.051-.031l-.094.086c-.021-.012-.042-.021-.062-.033l.018-.127c-.036-.016-.072-.029-.109-.045l-.077.104c-.022-.008-.045-.014-.067-.021l-.008-.127c-.037-.01-.075-.018-.113-.023l-.059.113c-.021-.002-.043-.006-.064-.008-.002 0-.003 0-.005 0l-.03-.123c-.012-.002-.022-.002-.035-.002-.012 0-.025 0-.037 0-.016 0-.03 0-.045 0l-.025.086-.01.037c-.023 0-.048.002-.07.004l-.053-.115c-.039.002-.078.012-.116.018l-.013.127c-.021.006-.045.014-.067.02l-.073-.105c-.037.012-.073.025-.109.041l.011.127c-.021.01-.042.02-.062.029l-.093-.09c-.033.02-.068.039-.1.061l.034.123c-.019.012-.038.027-.057.041l-.106-.07c-.03.023-.06.049-.088.076l.057.115c-.017.016-.033.033-.049.051l-.117-.051c-.025.031-.05.061-.072.094l.076.102c-.006.01-.013.02-.02.029-.006.01-.012.02-.018.029l-.126-.027c-.02.033-.037.068-.054.104l.094.086c-.01.021-.018.043-.027.064l-.127-.004c-.014.037-.025.074-.035.111l.109.068c-.006.023-.01.045-.015.068l-.126.02c-.006.037-.012.076-.013.117l.118.045c0 .023-.002.047-.002.07l-.119.043c.001.037.004.078.009.115l.125.025c.003.021.007.047.011.068l-.111.062c.01.039.02.076.031.115h.129c.006.022.014.043.023.066l-.1.082c.017.035.033.07.051.105l.127-.023c.011.021.023.041.035.06l-.081.1c.021.031.044.064.069.094l.119-.045c.015.02.029.035.046.053l-.062.111c.027.029.057.055.086.082l.109-.068c.018.016.035.029.055.045l-.04.121c.017.012.032.023.048.031.018.014.033.023.051.031l.095-.084c.021.01.042.021.062.031l-.017.127c.036.016.072.031.107.045l.078-.102c.022.008.045.016.067.02l.007.129c.039.008.077.018.115.023l.058-.115c.022.006.046.008.069.01l.03.123c.04.002.079.004.117.004l.035-.125c.024 0 .047-.002.07-.004l.053.117c.038-.008.077-.012.116-.021l.012-.127c.023-.004.045-.01.068-.016l.074.104c.036-.012.072-.025.108-.039l-.011-.129c.022-.01.042-.018.065-.029l.09.088c.035-.016.068-.037.102-.059l-.035-.123c.02-.014.039-.027.057-.043l.107.074c.029-.025.06-.051.087-.078l-.056-.113c.016-.018.032-.035.048-.053l.117.051c.024-.029.05-.061.072-.092l-.076-.104c.006-.01.013-.02.021-.027.006-.012.012-.02.018-.031l.125.029c.02-.035.037-.07.054-.105l-.094-.086c.01-.021.019-.043.026-.064l.128.004c.013-.035.024-.074.034-.111l-.108-.068c.005-.021.011-.047.015-.068l.125-.02c.007-.039.012-.078.014-.115l-.119-.047c.001-.025.001-.048.001-.072zm-.683-.941c.225.162.375.393.443.643l-.751.162c-.022-.061-.06-.115-.109-.16zm-.743-.221c.035-.004.072-.004.107 0 .182.008.363.059.53.154l-.417.645c-.061-.027-.126-.039-.189-.035l-.162-.75c.044-.008.087-.012.131-.014zm-.252.039.161.75c-.055.021-.105.055-.148.1-.004.002-.007.006-.011.012l-.645-.418c.164-.225.392-.375.643-.444zm-.71.547.645.416c-.027.061-.038.127-.034.191l-.75.16c-.043-.255.001-.526.139-.767zm.329 1.534c-.225-.162-.376-.391-.442-.643l.75-.162c.021.055.053.105.098.149.004.004.008.008.012.01zm.104.068.418-.645c.033.014.07.025.105.029.028.004.057.006.082.004l.162.752c-.255.042-.527-.003-.767-.14zm.891.113-.162-.75c.061-.023.116-.061.158-.109l.646.416c-.163.224-.392.375-.642.443zm.709-.549-.644-.416c.027-.062.039-.127.035-.189l.75-.162c.04.258-.003.529-.141.767z" fill="#fff"/><path d="m92.401 70.533.125-.043c-.002-.043-.006-.082-.01-.121l-.129-.025c-.004-.024-.008-.047-.013-.07l.114-.064c-.008-.041-.019-.078-.03-.119h-.132c-.008-.023-.016-.045-.024-.068l.101-.086c-.016-.035-.033-.072-.051-.109l-.131.023c-.012-.02-.024-.041-.037-.061l.084-.102c-.022-.035-.047-.066-.071-.1l-.123.047c-.017-.018-.031-.035-.048-.055l.062-.115c-.027-.027-.057-.055-.088-.082l-.112.068c-.018-.016-.037-.031-.056-.045l.039-.125c-.016-.012-.032-.024-.049-.035-.018-.01-.035-.02-.053-.031l-.098.09c-.02-.012-.043-.023-.064-.033l.018-.133c-.037-.016-.074-.031-.111-.045l-.08.104c-.023-.008-.047-.014-.069-.02l-.007-.133c-.04-.01-.08-.018-.119-.023l-.06.117c-.022-.004-.045-.006-.067-.008-.002 0-.002 0-.004 0l-.032-.127c-.012-.002-.023-.002-.036-.002-.012-.002-.025-.002-.039-.002-.016 0-.03 0-.045 0l-.026.09-.011.037c-.023.002-.049.004-.072.006l-.055-.121c-.039.006-.08.012-.119.02l-.013.133c-.022.004-.048.01-.07.018l-.075-.107c-.039.012-.076.027-.113.041l.011.131c-.022.01-.044.021-.065.031l-.094-.092c-.035.02-.07.039-.104.061l.035.129c-.02.012-.039.027-.059.041l-.109-.074c-.031.025-.062.053-.092.08l.059.119c-.018.018-.033.033-.049.053l-.122-.053c-.026.031-.051.062-.075.096l.08.107c-.008.008-.014.018-.02.027-.007.012-.013.021-.019.031l-.13-.029c-.021.035-.038.072-.056.107l.097.09c-.009.021-.019.043-.026.066l-.133-.006c-.014.039-.025.078-.035.117l.111.07c-.006.023-.01.047-.014.07l-.131.02c-.006.041-.012.08-.014.119l.123.049c-.001.023-.002.047-.001.072l-.125.043c.001.041.004.082.009.121l.129.025c.004.023.008.047.013.07l-.114.064c.009.041.019.08.031.119h.131c.008.023.016.045.025.068l-.102.086c.016.037.033.072.052.109l.13-.025c.013.021.023.043.037.064l-.083.102c.022.033.046.064.071.096l.123-.047c.016.02.03.037.047.057l-.063.115c.028.027.058.055.087.082l.112-.068c.02.016.039.031.058.045l-.04.125c.017.012.033.022.05.035.017.01.034.02.052.031l.098-.09c.022.012.043.023.065.033l-.018.133c.037.016.074.031.111.045l.081-.103c.022.008.046.014.069.019l.006.131c.041.012.08.02.119.025l.061-.117c.023.002.047.006.07.008l.031.127c.041.004.082.006.123.004l.035-.127c.024-.002.049-.004.072-.006l.055.119c.039-.004.079-.01.119-.02l.012-.131c.025-.004.049-.01.07-.018l.076.107c.039-.012.076-.027.115-.041l-.014-.131c.023-.01.045-.02.066-.033l.095.094c.034-.02.069-.039.103-.061l-.035-.127c.021-.014.039-.029.059-.043l.109.072c.031-.023.062-.051.092-.08l-.059-.117c.018-.018.033-.035.05-.053l.12.053c.026-.031.052-.062.076-.096l-.079-.105c.006-.01.013-.02.018-.031.008-.01.014-.02.02-.029l.129.029c.02-.035.039-.07.057-.107l-.097-.09c.009-.021.019-.043.026-.066l.133.006c.014-.039.025-.078.035-.117l-.111-.07c.006-.023.01-.047.014-.07l.131-.02c.006-.041.011-.08.014-.119l-.123-.049c.002-.022.002-.047.002-.071zm-.706-.972c.231.168.388.404.457.662l-.774.168c-.023-.061-.062-.117-.112-.164zm-.765-.229c.037-.002.073-.002.11 0 .188.008.375.061.547.16l-.43.666c-.062-.027-.129-.041-.195-.037l-.166-.773c.043-.008.088-.012.134-.016zm-.261.043.167.775c-.058.02-.109.053-.153.1-.004.002-.008.006-.012.01l-.665-.428c.167-.232.405-.389.663-.457zm-.733.564.664.43c-.027.062-.039.131-.035.195l-.774.166c-.042-.263.003-.542.145-.791zm.338 1.582c-.23-.17-.387-.404-.456-.664l.774-.166c.022.057.055.109.101.152.003.004.008.008.013.01zm.11.069.43-.664c.035.014.072.027.111.031.027.004.057.004.085.004l.166.773c-.265.043-.544-.002-.792-.144zm.918.119-.166-.775c.062-.023.119-.062.163-.111l.665.428c-.166.231-.404.388-.662.458zm.732-.566-.666-.43c.029-.064.041-.131.037-.195l.774-.166c.043.263-.002.543-.145.791z" fill="#333"/><path d="m87.647 73.332.125-.045c-.002-.041-.005-.08-.01-.119l-.129-.025c-.004-.023-.008-.049-.012-.072l.115-.064c-.01-.041-.02-.078-.031-.117h-.133c-.008-.025-.016-.047-.025-.068l.102-.086c-.016-.037-.033-.074-.052-.109l-.13.023c-.012-.02-.024-.041-.037-.062l.084-.102c-.022-.033-.047-.066-.071-.098l-.124.047c-.014-.018-.03-.037-.048-.055l.063-.115c-.027-.027-.057-.057-.088-.084l-.112.07c-.019-.016-.038-.031-.057-.045l.04-.127c-.016-.012-.032-.021-.049-.033-.018-.01-.035-.021-.053-.031l-.097.088c-.022-.012-.044-.023-.065-.033l.019-.131c-.037-.016-.075-.033-.112-.045l-.08.104c-.023-.008-.047-.016-.07-.02l-.007-.133c-.04-.01-.079-.018-.118-.025l-.059.119c-.023-.004-.046-.006-.068-.008-.002 0-.002 0-.004 0l-.031-.129c-.012-.002-.023-.002-.035-.002-.014 0-.027 0-.041 0-.016-.002-.029-.002-.046 0l-.025.09-.011.035c-.023.002-.049.006-.072.008l-.055-.121c-.04.004-.08.01-.119.02l-.014.131c-.022.006-.045.012-.07.02l-.074-.107c-.039.012-.076.025-.113.041l.012.131c-.023.01-.045.02-.066.031l-.094-.094c-.036.02-.07.041-.104.062l.035.127c-.019.014-.038.027-.058.043l-.11-.074c-.03.025-.062.051-.091.08l.059.117c-.017.018-.033.035-.049.055l-.121-.055c-.027.031-.052.064-.076.096l.08.105c-.008.01-.014.02-.021.031-.005.01-.013.02-.02.029l-.129-.027c-.02.035-.038.07-.056.105l.098.092c-.01.021-.02.043-.027.066l-.133-.006c-.013.039-.025.076-.035.115l.112.072c-.006.021-.011.047-.015.07l-.131.018c-.006.041-.011.08-.014.121l.123.049c-.001.021-.002.047-.002.072l-.124.043c.002.041.004.082.009.121l.129.025c.005.023.008.045.012.07l-.113.064c.008.041.02.078.03.117h.132c.008.023.016.047.025.07l-.101.084c.015.037.032.072.052.109l.129-.024c.013.021.024.041.037.062l-.084.102c.022.035.047.066.071.098l.124-.049c.015.02.031.037.047.057l-.062.115c.027.027.058.057.088.084l.112-.07c.019.016.038.031.057.047l-.04.125c.016.01.033.021.05.033s.034.02.052.031l.098-.088c.021.012.043.023.064.033l-.018.133c.037.014.074.029.111.045l.08-.105c.023.008.047.016.07.021l.008.131c.039.012.077.018.117.025l.06-.117c.024.002.048.004.071.008l.031.127c.042.002.082.006.121.002l.037-.127c.024 0 .049-.002.073-.006l.054.121c.041-.004.08-.012.119-.02l.013-.133c.023-.004.047-.01.07-.016l.076.107c.038-.014.075-.027.113-.043l-.012-.131c.022-.01.044-.02.065-.031l.094.094c.035-.02.07-.039.104-.062l-.036-.127c.021-.012.04-.027.059-.043l.111.074c.03-.023.061-.051.09-.08l-.059-.117c.018-.02.033-.037.05-.053l.121.051c.026-.029.052-.062.075-.096l-.08-.105c.008-.008.014-.02.021-.029.006-.01.012-.02.018-.031l.129.031c.021-.037.039-.072.057-.109l-.098-.088c.011-.023.019-.045.028-.068l.132.006c.014-.039.024-.078.035-.115l-.111-.07c.005-.023.01-.047.014-.07l.131-.019c.006-.041.012-.08.014-.119l-.123-.051c.002-.023.003-.048.003-.07zm-.705-.973c.23.168.387.404.457.662l-.775.168c-.023-.062-.062-.119-.113-.164zm-.766-.228c.036-.002.073-.002.112 0 .187.008.373.059.545.16l-.43.664c-.063-.027-.13-.039-.195-.037l-.167-.773c.044-.006.09-.012.135-.014zm-.261.041.166.773c-.057.021-.108.057-.152.102-.004.004-.007.008-.012.012l-.664-.428c.167-.235.404-.389.662-.459zm-.732.564.666.432c-.029.061-.041.129-.037.195l-.773.166c-.044-.263.001-.545.144-.793zm.339 1.582c-.232-.168-.389-.404-.459-.662l.775-.166c.021.055.055.107.1.15.006.004.01.008.014.012zm.107.069.432-.664c.034.016.071.025.11.033.029.004.057.004.084.004l.168.773c-.266.043-.546-.004-.794-.146zm.919.119-.167-.775c.063-.023.119-.062.164-.111l.665.43c-.167.229-.404.388-.662.456zm.732-.565-.666-.43c.029-.064.041-.133.037-.197l.775-.166c.042.266-.003.545-.146.793z" fill="#333"/><path d="m87.466 68.473c-.006-.035-.038-.066-.072-.072l-.137-.02c-.035-.006-.072-.037-.084-.07l-.059-.133c-.016-.031-.013-.08.007-.109l.078-.113c.02-.029.018-.076-.004-.104l-.075-.084c-.024-.025-.069-.033-.103-.018l-.121.066c-.031.016-.08.012-.109-.008 0 0-.021-.016-.061-.039-.041-.023-.064-.035-.064-.035-.031-.014-.059-.057-.06-.09l-.005-.139c0-.035-.029-.072-.064-.08l-.11-.025c-.033-.004-.075.016-.09.047l-.021.041-.023.049-.019.033c-.016.033-.057.061-.092.061l-.053.004-.025.002-.066.008c-.036.006-.082-.012-.102-.039l-.086-.111c-.021-.027-.065-.039-.098-.027l-.104.047c-.032.016-.053.055-.047.09l.022.137c.007.035-.013.08-.04.101l-.109.098c-.023.025-.071.037-.105.027l-.133-.039c-.033-.01-.076.008-.097.035 0 0-.01.014-.03.049-.02.033-.027.049-.027.049-.016.031-.008.078.018.104l.099.096c.024.025.038.072.028.105l-.031.142c-.006.035-.037.072-.069.084l-.13.047c-.033.014-.06.051-.057.086l.011.113c.005.035.038.066.072.072l.136.02c.035.006.074.037.086.068l.059.135c.016.031.013.08-.008.109l-.078.113c-.019.029-.018.076.006.102l.074.086c.025.023.069.031.102.016l.122-.064c.031-.016.079-.014.108.008 0 0 .022.016.062.039.039.023.064.035.064.035.031.016.059.055.059.09l.004.139c.002.035.029.07.065.08l.109.025c.035.006.076-.016.092-.047l.061-.123c.017-.033.059-.061.093-.061l.146-.014c.034-.006.08.012.101.041l.084.107c.022.029.066.039.1.029l.104-.047c.031-.016.053-.057.047-.09l-.023-.137c-.006-.035.012-.082.041-.101l.107-.098c.025-.025.072-.037.105-.029l.133.039c.033.012.078-.006.098-.033 0 0 .01-.014.031-.049.02-.035.025-.051.025-.051.016-.031.008-.076-.017-.102l-.099-.096c-.025-.023-.039-.072-.027-.105l.03-.142c.007-.035.036-.072.069-.084l.131-.047c.031-.014.059-.051.056-.086zm-.639.547c-.2.342-.641.457-.984.256s-.459-.641-.257-.984c.114-.195.308-.316.515-.348.024-.004.049-.006.072-.006.023-.002.045-.002.067 0 .025 0 .049.002.072.006.088.014.176.043.258.092.343.198.458.64.257.984z" fill="#333"/><path d="m86.466 68.213c-.049-.029-.101-.049-.154-.059-.07-.016-.142-.016-.211 0-.136.027-.261.113-.337.242-.144.244-.062.559.185.701.244.145.559.062.701-.184.143-.243.06-.558-.184-.7zm-.1.533c-.052.09-.166.121-.253.068-.089-.053-.118-.164-.066-.252.014-.025.031-.045.053-.059.058-.041.135-.045.199-.008.005.002.008.004.012.008.079.054.104.161.055.243z" fill="#333"/><path d="m82.217 69.5c-.004-.025-.029-.051-.056-.053l-.104-.018c-.027-.004-.057-.027-.065-.053l-.045-.104c-.013-.021-.011-.059.005-.082l.059-.086c.017-.023.016-.059-.002-.078l-.058-.066c-.019-.02-.054-.023-.077-.012l-.094.049c-.024.012-.061.01-.082-.006 0 0-.018-.012-.048-.031-.03-.018-.05-.023-.05-.023-.023-.014-.043-.043-.045-.07l-.003-.105c-.001-.027-.022-.057-.049-.062l-.084-.018c-.026-.006-.058.012-.069.035l-.016.029-.019.037-.014.029c-.012.023-.044.043-.071.045l-.04.002-.019.004-.051.004c-.027.006-.062-.01-.078-.031l-.064-.082c-.017-.021-.051-.031-.076-.021l-.078.033c-.025.014-.041.045-.036.07l.018.105c.005.027-.01.062-.03.078l-.084.074c-.019.017-.055.027-.08.019l-.102-.029c-.025-.006-.061.004-.074.027 0 0-.008.01-.023.037-.016.025-.021.037-.021.037-.012.023-.006.061.014.078l.075.074c.02.018.028.055.022.08l-.024.109c-.005.027-.028.057-.054.064l-.1.035c-.024.01-.044.039-.043.066l.009.088c.004.025.028.049.056.053l.104.016c.027.004.057.027.066.053l.044.102c.013.025.011.062-.005.084l-.059.088c-.017.022-.016.057.003.078l.056.064c.02.02.055.025.078.012l.094-.049c.023-.012.061-.01.082.008 0 0 .018.01.047.027.031.018.051.027.051.027.023.012.045.043.045.07l.003.105c.001.027.022.055.049.061l.084.02c.026.004.058-.012.07-.035l.047-.096c.012-.024.044-.043.07-.045l.11-.012c.026-.004.062.01.078.031l.064.084c.017.02.051.031.076.02l.079-.035c.024-.012.04-.043.036-.068l-.019-.104c-.004-.027.009-.062.03-.08l.084-.072c.02-.02.056-.029.081-.02l.101.027c.027.008.059-.004.074-.025 0 0 .008-.012.023-.037.016-.027.021-.039.021-.039.012-.024.006-.059-.014-.078l-.075-.072c-.02-.02-.028-.057-.021-.082l.023-.109c.005-.025.028-.055.054-.064l.1-.035c.023-.01.045-.037.043-.066zm-.489.42c-.153.26-.49.35-.753.195-.262-.154-.35-.49-.196-.754.088-.148.235-.242.393-.266.019-.002.037-.004.056-.004.017-.002.034-.002.051 0 .018 0 .037.002.056.004.066.01.135.033.197.07.262.153.35.491.196.755z" fill="#333"/><path d="m81.452 69.303c-.037-.024-.078-.037-.117-.047-.055-.01-.109-.01-.162 0-.103.021-.199.086-.258.186-.109.188-.046.428.141.537.188.109.428.047.537-.141.109-.186.046-.426-.141-.535zm-.076.406c-.039.07-.127.094-.192.053-.068-.039-.091-.127-.052-.193.012-.018.025-.033.041-.045.044-.029.104-.033.152-.006.004.002.007.004.01.006.059.042.078.122.041.185z" fill="#333"/><path d="m95.929 65.285c-.006-.037-.043-.074-.082-.08l-.15-.021c-.039-.008-.081-.041-.095-.078l-.065-.148c-.017-.033-.014-.088.008-.121l.088-.127c.021-.031.02-.084-.006-.113l-.083-.094c-.028-.027-.078-.037-.113-.018l-.136.072c-.035.018-.09.012-.12-.01 0 0-.023-.018-.069-.045-.044-.025-.071-.037-.071-.037-.034-.018-.063-.061-.065-.1l-.004-.156c-.003-.037-.033-.076-.07-.088l-.123-.025c-.039-.008-.084.016-.102.051l-.021.045-.027.055-.02.037c-.018.033-.064.066-.104.066l-.059.004-.026.004-.075.008c-.039.008-.089-.014-.113-.045l-.094-.121c-.023-.029-.072-.043-.109-.029l-.115.049c-.035.017-.059.064-.052.101l.026.152c.006.039-.015.088-.045.111l-.121.109c-.027.027-.08.041-.117.029l-.147-.043c-.038-.01-.085.006-.108.039 0 0-.011.016-.033.055s-.029.053-.029.053c-.019.037-.01.088.018.115l.111.105c.026.027.041.082.03.119l-.036.158c-.006.037-.039.08-.076.094l-.144.053c-.037.012-.065.055-.063.094l.012.125c.006.039.043.076.081.082l.151.021c.039.006.081.039.095.076l.064.148c.019.035.015.09-.007.121l-.086.127c-.021.033-.021.084.004.113l.083.096c.028.027.078.035.112.016l.137-.07c.035-.018.088-.014.12.008 0 0 .024.017.067.045.045.025.073.037.073.037.034.018.064.06.066.101l.004.152c.001.039.032.082.07.09l.123.025c.036.008.083-.014.101-.051l.068-.139c.018-.031.062-.062.103-.064l.16-.016c.039-.006.09.014.113.043l.094.123c.024.031.073.045.11.031l.115-.051c.035-.018.058-.064.051-.104l-.025-.148c-.006-.039.015-.09.045-.115l.121-.107c.027-.025.08-.041.117-.029l.147.043c.036.01.086-.006.108-.039 0 0 .011-.016.033-.055s.029-.053.029-.053c.017-.037.01-.088-.019-.115l-.109-.105c-.028-.027-.042-.082-.03-.119l.033-.158c.007-.037.041-.078.078-.094l.145-.051c.035-.014.064-.057.062-.096zm-.71.608c-.223.381-.712.508-1.093.285-.381-.225-.51-.713-.285-1.094.127-.219.34-.352.571-.387.026-.004.053-.006.08-.008h.073c.027.002.055.004.082.008.097.014.194.047.286.1.38.224.509.713.286 1.096z" fill="#333"/><path d="m94.816 64.998c-.054-.033-.112-.055-.169-.068-.08-.016-.16-.014-.235 0-.151.033-.289.125-.374.27-.159.271-.068.621.204.779.272.16.62.068.78-.203.159-.272.067-.622-.206-.778zm-.11.594c-.057.096-.182.131-.28.072-.098-.057-.131-.184-.073-.281.015-.025.035-.047.06-.064.063-.043.149-.049.222-.008.004.004.008.006.014.01.084.058.112.177.057.271z" fill="#333"/><path d="m92.692 76.908c-.007-.041-.046-.082-.088-.086l-.164-.025c-.043-.006-.088-.043-.101-.084l-.07-.158c-.02-.039-.018-.098.008-.133l.094-.137c.023-.035.021-.09-.005-.123l-.092-.104c-.029-.029-.084-.037-.122-.018l-.147.076c-.038.02-.097.016-.13-.01 0 0-.026-.02-.075-.047-.047-.027-.076-.041-.076-.041-.039-.018-.07-.066-.072-.109l-.006-.166c0-.041-.035-.086-.076-.096l-.133-.031c-.041-.006-.091.018-.109.057l-.024.051-.028.057-.021.041c-.018.037-.068.07-.111.072l-.067.006-.027.002-.082.01c-.042.006-.098-.016-.123-.049l-.102-.131c-.025-.035-.079-.049-.119-.035l-.124.055c-.039.02-.063.07-.056.111l.026.164c.007.041-.015.098-.048.121l-.131.117c-.029.031-.086.045-.127.033l-.16-.047c-.04-.012-.093.008-.117.043 0 0-.012.016-.035.059-.024.043-.033.059-.033.059-.02.039-.01.094.02.123l.118.117c.03.029.045.086.035.127l-.039.172c-.006.043-.043.086-.084.102l-.154.057c-.041.014-.072.059-.069.102l.013.137c.007.041.047.082.088.086l.164.025c.043.008.087.043.102.082l.072.162c.019.037.014.096-.008.133l-.095.135c-.024.035-.021.092.005.123l.09.104c.029.029.084.037.122.018l.147-.076c.037-.02.096-.016.131.01 0 0 .026.02.074.047s.078.041.078.041c.037.018.069.067.07.108l.006.168c.001.043.035.086.076.098l.133.029c.041.006.091-.018.109-.057l.074-.148c.02-.037.069-.07.11-.072l.175-.017c.042-.006.098.016.123.049l.102.131c.026.035.079.051.119.035l.125-.057c.037-.018.062-.068.056-.109l-.028-.164c-.006-.041.016-.098.049-.123l.131-.115c.029-.029.088-.047.127-.033l.16.047c.04.01.092-.01.117-.043 0 0 .012-.016.035-.059.025-.041.033-.059.033-.059.02-.039.01-.094-.021-.123l-.118-.117c-.03-.029-.047-.086-.033-.127l.037-.17c.006-.043.043-.088.082-.104l.158-.057c.039-.014.07-.059.067-.102zm-.769.656c-.24.414-.771.551-1.185.311-.411-.24-.551-.771-.309-1.184.139-.238.37-.383.621-.422.027-.004.057-.004.086-.006.027-.002.053-.002.08 0 .029.002.058.002.087.006.106.018.212.053.312.111.411.241.55.772.308 1.184z" fill="#333"/><path d="m91.487 76.596c-.059-.035-.121-.059-.185-.07-.085-.02-.171-.018-.253 0-.166.033-.315.133-.406.291-.174.295-.074.672.221.844s.673.076.846-.221c.172-.295.072-.672-.223-.844zm-.119.644c-.062.105-.198.142-.305.08-.106-.064-.141-.199-.08-.305.018-.029.039-.055.066-.07.068-.049.161-.055.239-.008.005 0 .01.004.014.008.095.065.125.194.066.295z" fill="#333"/><path d="m98.386 74.182.52-.121-.256-1.096-.52.123c-.176-.402-.433-.754-.744-1.037l.279-.453-.955-.594-.281.453c-.311-.121-.641-.191-.982-.207-.088-.004-.178-.004-.268 0-.004 0-.008 0-.012 0l-.12-.518-1.095.258.121.517c-.104.045-.207.1-.305.156-.277.156-.523.359-.732.59l-.454-.281-.591.955.452.281c-.153.393-.227.822-.206 1.26l-.519.121.256 1.096.519-.121c.176.402.433.754.746 1.037l-.281.453.955.592.282-.453c.394.154.822.229 1.261.207l.121.52 1.094-.258-.121-.518c.106-.047.209-.1.307-.156.275-.156.521-.359.733-.59l.451.281.592-.955-.452-.281c.152-.392.226-.822.205-1.261zm-1.934 2.111c-.189.109-.397.193-.621.244-1.223.287-2.445-.471-2.732-1.691-.234-1 .229-1.998 1.073-2.486.189-.111.397-.195.621-.246.13-.029.257-.049.386-.057.09-.006.18-.006.268 0 .977.059 1.844.746 2.078 1.75.234 1-.229 1.998-1.073 2.486z" fill="#fff"/><path d="m89.131 70.586.173-.039-.086-.365-.172.041c-.059-.135-.144-.25-.248-.346l.093-.15-.317-.195-.094.148c-.102-.039-.213-.064-.327-.068-.029 0-.059 0-.088 0h-.005l-.04-.172-.362.084.039.174c-.035.014-.069.031-.102.051-.092.055-.174.121-.244.197l-.15-.094-.196.318.151.092c-.053.133-.076.275-.07.42l-.172.041.086.365.172-.041c.059.133.145.25.248.344l-.093.15.317.197.094-.148c.131.051.272.074.419.066l.041.174.362-.086-.04-.172c.036-.018.069-.031.103-.051.092-.055.173-.121.243-.197l.151.094.197-.318-.152-.094c.051-.131.076-.274.069-.42zm-.643.703c-.064.035-.134.062-.207.08-.407.098-.813-.156-.909-.562-.077-.332.076-.664.357-.826.062-.037.132-.064.206-.082.043-.01.086-.016.129-.018.029-.004.059-.004.088 0 .326.018.614.248.692.582.078.332-.075.664-.356.826z" fill="#fff"/><path d="m84.632 71.662.173-.041-.086-.363-.171.039c-.059-.133-.145-.25-.248-.344l.092-.15-.316-.199-.095.15c-.103-.041-.213-.062-.327-.068-.029 0-.059 0-.088 0h-.004l-.041-.172-.364.086.04.172c-.034.016-.069.033-.103.051-.091.053-.173.119-.242.195l-.15-.092-.197.316.15.096c-.051.129-.075.273-.068.418l-.173.041.085.363.173-.039c.059.133.143.25.247.346l-.092.149.317.197.093-.15c.131.053.273.076.42.07l.041.172.363-.086-.04-.172c.034-.016.069-.033.102-.053.092-.053.173-.119.243-.197l.15.094.197-.318-.15-.092c.051-.132.076-.274.069-.419zm-.643.701c-.065.037-.133.065-.207.082-.406.094-.813-.158-.909-.564-.077-.332.076-.664.356-.826.063-.037.133-.064.207-.082.043-.012.086-.016.129-.02h.088c.326.02.613.248.691.582.079.332-.075.664-.355.828z" fill="#333"/><path d="m86.243 65.758.236-.055-.116-.5-.236.055c-.079-.182-.196-.342-.339-.473l.127-.205-.435-.27-.129.207c-.142-.057-.292-.09-.447-.094-.04-.004-.081-.004-.122 0-.001 0-.004 0-.004 0l-.055-.236-.5.115.056.236c-.048.021-.095.045-.14.072-.125.07-.238.164-.334.268l-.205-.126-.27.434.206.129c-.07.18-.104.373-.094.574l-.236.055.117.5.236-.057c.08.184.196.344.339.473l-.128.207.436.27.129-.205c.179.068.373.104.574.094l.055.236.498-.117-.055-.236c.048-.021.096-.045.139-.07.126-.074.238-.164.334-.27l.207.129.27-.436-.207-.129c.07-.179.103-.374.093-.575zm-.881.961c-.086.051-.182.09-.283.111-.557.133-1.113-.213-1.244-.77-.107-.455.104-.91.489-1.133.085-.049.181-.088.282-.111.059-.016.117-.023.176-.027.041-.002.082-.002.122 0 .445.027.84.34.947.799.107.455-.104.908-.489 1.131z" fill="#fff"/><path d="m92.462 67.943-.182.504c-.024.064.011.137.076.16l.213.074c-.01.119-.003.238.014.352l-.203.092c-.064.027-.093.102-.063.166l.225.49c.028.062.105.09.169.062l.193-.086c.086.109.187.207.304.293l-.066.184c-.024.066.011.139.077.162l.51.182c.067.023.14-.01.163-.074l.056-.154c.137.018.273.018.406.002l.062.133c.028.062.104.092.169.062l.494-.217c.062-.029.09-.104.062-.166l-.047-.104c.133-.098.252-.215.35-.354l.092.033c.066.023.139-.012.162-.076l.182-.502c.024-.066-.011-.139-.077-.162l-.079-.029c.017-.152.01-.307-.02-.453l.076-.033c.063-.029.093-.104.063-.168l-.226-.488c-.028-.062-.104-.092-.168-.062l-.087.039c-.106-.129-.235-.238-.381-.328l.037-.105c.023-.064-.011-.135-.077-.158l-.512-.182c-.066-.024-.138.008-.162.072l-.047.135c-.139-.006-.275.004-.408.031l-.068-.146c-.029-.062-.104-.092-.168-.062l-.494.219c-.062.027-.092.102-.062.166l.082.178c-.105.09-.2.195-.279.314l-.197-.068c-.068-.027-.142.008-.164.072zm.885.571c.157-.436.643-.662 1.086-.506.443.158.674.643.518 1.078-.157.436-.645.66-1.086.502-.444-.156-.676-.637-.518-1.074z" fill="#fff"/><path d="m81.282 67.617-.061.17c-.008.021.004.047.025.055l.072.024c-.003.041-.002.08.004.121l-.068.029c-.022.01-.031.035-.022.055l.076.168c.01.02.035.029.057.02l.065-.029c.028.037.063.07.103.1l-.022.062c-.009.021.003.045.025.053l.172.062c.022.008.048-.004.055-.025l.019-.051c.047.004.092.004.139 0l.02.043c.01.023.035.031.057.023l.166-.074c.021-.012.031-.035.021-.057l-.016-.033c.045-.033.085-.074.117-.121l.031.012c.021.008.047-.004.055-.025l.062-.17c.008-.021-.004-.047-.026-.053l-.027-.012c.007-.051.004-.102-.006-.152l.025-.012c.021-.01.031-.033.021-.057l-.075-.164c-.01-.021-.035-.029-.058-.021l-.029.014c-.035-.041-.078-.08-.127-.109l.012-.035c.008-.021-.004-.047-.026-.055l-.172-.062c-.023-.006-.046.006-.055.027l-.017.045c-.046-.004-.093 0-.137.01l-.023-.049c-.009-.021-.035-.031-.057-.021l-.166.072c-.021.012-.031.035-.021.057l.028.061c-.036.029-.067.066-.095.107l-.066-.025c-.023-.011-.047.001-.055.022zm.299.194c.053-.146.217-.223.365-.172.15.055.226.217.175.363-.054.146-.217.223-.366.17-.15-.053-.228-.215-.174-.361z" fill="#fff"/><path d="m85.161 70.455-.078.213c-.009.027.006.061.033.068l.091.033c-.004.049-.001.1.006.148l-.087.039c-.026.013-.039.044-.026.071l.095.207c.013.027.045.041.072.025l.082-.035c.036.047.08.09.129.125l-.028.078c-.011.029.005.058.032.07l.217.076c.029.01.06-.004.069-.033l.023-.064c.059.008.116.008.173.002l.025.055c.013.027.045.039.072.027l.209-.094c.027-.01.04-.043.026-.068l-.02-.045c.057-.041.107-.092.149-.15l.039.016c.027.01.059-.006.068-.033l.076-.213c.01-.027-.004-.059-.032-.068l-.033-.014c.007-.064.003-.129-.008-.191l.032-.014c.027-.012.038-.045.027-.072l-.094-.208c-.013-.027-.044-.039-.071-.027l-.037.018c-.045-.055-.1-.102-.161-.141l.015-.043c.01-.025-.004-.059-.033-.068l-.215-.076c-.029-.012-.061.004-.069.031l-.021.057c-.059-.004-.117.002-.174.014l-.028-.062c-.013-.027-.045-.039-.071-.027l-.209.094c-.027.014-.04.043-.027.068l.035.076c-.045.039-.086.084-.119.135l-.084-.029c-.031-.012-.06.002-.07.029zm.375.242c.066-.186.273-.281.461-.213.188.066.286.27.221.455-.067.186-.273.281-.461.215-.19-.066-.287-.271-.221-.457z" fill="#fff"/><path d="m80.708 71.213-.077.213c-.009.025.005.059.033.068l.091.031c-.004.049-.002.102.006.148l-.087.039c-.027.014-.039.043-.026.07l.096.209c.012.025.044.039.071.025l.081-.037c.037.047.08.088.129.125l-.028.078c-.009.027.006.059.034.07l.216.076c.028.01.06-.004.068-.031l.025-.066c.058.008.116.01.173.002l.026.057c.012.025.044.037.07.025l.21-.092c.026-.014.039-.045.026-.07l-.02-.045c.057-.041.107-.092.148-.148l.04.014c.027.01.059-.006.067-.033l.078-.213c.01-.029-.006-.059-.033-.066l-.033-.014c.007-.066.004-.131-.008-.193l.031-.014c.027-.012.039-.045.027-.072l-.096-.205c-.012-.027-.044-.041-.071-.027l-.037.018c-.046-.057-.1-.104-.161-.141l.016-.043c.01-.029-.005-.061-.033-.07l-.217-.076c-.028-.01-.059.004-.068.031l-.021.057c-.06-.002-.117.002-.175.014l-.027-.062c-.014-.027-.045-.039-.072-.027l-.209.094c-.027.012-.039.043-.027.07l.035.074c-.045.041-.084.084-.118.137l-.084-.031c-.028-.012-.059.002-.069.031zm.377.24c.066-.186.273-.279.46-.213.188.066.286.271.22.455-.066.186-.272.281-.461.215s-.285-.271-.219-.457z" fill="#fff"/><path d="m82.597 66.914-.051.141c-.006.02.004.039.023.045l.059.021c-.003.031-.002.066.004.098l-.058.025c-.018.008-.024.029-.018.045l.063.139c.008.017.029.025.047.016l.054-.023c.024.031.054.061.085.082l-.02.053c-.006.018.004.039.022.043l.144.053c.018.006.037-.002.045-.021l.015-.043c.039.006.076.006.114.002l.018.037c.008.018.029.023.047.018l.138-.062c.019-.008.025-.029.017-.047l-.012-.027c.037-.027.07-.061.098-.1l.025.01c.018.006.039-.004.045-.02l.051-.143c.006-.018-.003-.037-.021-.045l-.022-.008c.004-.041.002-.086-.006-.127l.021-.01c.018-.008.025-.027.018-.045l-.062-.139c-.009-.016-.029-.025-.047-.016l-.025.01c-.029-.035-.064-.066-.106-.092l.011-.029c.007-.018-.004-.037-.021-.045l-.143-.051c-.02-.006-.039.004-.046.021l-.014.037c-.038-.002-.076 0-.113.01l-.02-.041c-.007-.018-.028-.025-.047-.018l-.138.061c-.018.008-.025.027-.018.047l.024.049c-.03.025-.056.055-.078.088l-.056-.02c-.019-.006-.039.003-.046.021zm.248.16c.044-.121.18-.186.303-.141.123.043.189.178.145.301-.043.121-.179.184-.303.139-.125-.043-.189-.176-.145-.299z" fill="#333"/><path d="m98.091 71.215-.064.178c-.008.023.004.049.027.057l.075.029c-.003.041-.001.082.005.123l-.072.033c-.021.01-.031.035-.021.059l.079.174c.01.021.037.031.06.021l.068-.031c.031.039.067.074.107.104l-.023.066c-.008.023.004.049.027.057l.182.066c.023.008.049-.006.059-.027l.019-.055c.049.006.097.006.145 0l.022.047c.01.023.037.033.059.023l.176-.078c.022-.01.032-.037.022-.059l-.017-.037c.047-.033.089-.074.125-.125l.031.012c.023.008.05-.004.059-.025l.064-.18c.008-.021-.004-.049-.027-.057l-.029-.01c.007-.055.004-.109-.007-.16l.027-.014c.023-.01.032-.037.022-.059l-.08-.174c-.01-.021-.037-.033-.06-.021l-.03.012c-.039-.045-.084-.084-.135-.115l.013-.035c.009-.023-.004-.049-.028-.059l-.181-.064c-.024-.008-.05.004-.058.025l-.017.049c-.049-.004-.098.002-.145.012l-.023-.051c-.011-.023-.037-.035-.061-.023l-.174.076c-.023.012-.033.037-.022.059l.028.064c-.037.033-.07.07-.099.111l-.07-.025c-.025-.008-.05.003-.058.027zm.314.203c.055-.156.226-.234.385-.18.157.057.238.227.184.381-.057.154-.229.236-.385.18-.158-.057-.239-.227-.184-.381z" fill="#333"/><path d="m88.129 72.977-.182.504c-.023.064.011.135.077.158l.213.076c-.01.117-.004.236.015.352l-.205.09c-.064.027-.093.104-.062.164l.225.49c.028.064.104.092.169.062l.191-.084c.086.107.188.207.305.291l-.066.186c-.023.064.01.137.076.16l.51.182c.066.023.14-.01.162-.076l.057-.152c.137.02.272.02.406.004l.061.129c.029.064.104.094.168.064l.493-.219c.063-.027.093-.102.063-.164l-.048-.102c.134-.098.253-.217.35-.354l.092.033c.067.021.139-.012.163-.076l.182-.502c.022-.064-.012-.139-.078-.16l-.078-.029c.016-.154.008-.307-.02-.455l.075-.033c.063-.027.093-.104.063-.166l-.225-.488c-.029-.062-.106-.09-.168-.062l-.088.039c-.105-.127-.233-.238-.381-.328l.039-.104c.021-.065-.012-.137-.078-.16l-.51-.182c-.066-.023-.139.01-.162.074l-.049.133c-.138-.006-.275.006-.408.033l-.066-.146c-.029-.062-.104-.092-.168-.062l-.493.217c-.063.029-.093.104-.062.166l.081.178c-.105.09-.199.197-.277.316l-.201-.074c-.066-.023-.139.01-.161.077zm.884.568c.156-.434.643-.66 1.085-.502.44.158.673.639.517 1.074-.157.436-.643.662-1.085.504s-.675-.639-.517-1.076z" fill="#fff"/><path d="m122.737 94.375c-1.671 0-3.027 1.355-3.027 3.025 0-1.67-1.354-3.025-3.026-3.025 1.673 0 3.026-1.357 3.026-3.025 0 1.668 1.356 3.025 3.027 3.025z" fill="#fff"/><circle cx="124.75" cy="91.525" fill="#fff" r="1.446"/><path d="m56.714 97.635c0 1.371 1.113 2.484 2.48 2.484-1.367 0-2.48 1.111-2.48 2.48 0-1.369-1.114-2.48-2.482-2.48 1.368 0 2.482-1.113 2.482-2.484z" fill="#fff"/><path d="m54.376 94.799c0 .654.531 1.186 1.186 1.186-.654 0-1.186.531-1.186 1.186 0-.654-.531-1.186-1.186-1.186.655-.001 1.186-.532 1.186-1.186z" fill="#fff"/><path d="m62.03 83.301c-.656-.656-1.723-.656-2.378-.002.655-.654.656-1.721-.001-2.379.657.658 1.724.656 2.379 0-.655.656-.656 1.725 0 2.381z" fill="#fff"/><path d="m64.509 83.541c-.313-.316-.822-.316-1.135-.002.312-.314.312-.822 0-1.137.312.314.822.314 1.135 0-.313.315-.314.823 0 1.139z" fill="#fff"/><path d="m73.584 64.871c0 .93.753 1.684 1.681 1.684-.928 0-1.681.752-1.681 1.684 0-.932-.755-1.684-1.683-1.684.928 0 1.683-.754 1.683-1.684z" fill="#fff"/><path d="m72 62.949c0 .445.36.805.804.805-.443 0-.804.359-.804.803 0-.443-.361-.803-.804-.803.443 0 .804-.359.804-.805z" fill="#fff"/><path d="m114.288 118.006c0 .93.754 1.682 1.682 1.682-.928 0-1.682.754-1.682 1.684 0-.93-.754-1.684-1.682-1.684.928 0 1.682-.752 1.682-1.682z" fill="#fff"/><path d="m112.705 116.084c0 .443.359.805.802.805-.442 0-.802.357-.802.803 0-.445-.36-.803-.804-.803.444 0 .804-.362.804-.805z" fill="#fff"/><path d="m85.03 55.584c0 .746.605 1.354 1.351 1.354-.745 0-1.351.604-1.351 1.35 0-.746-.607-1.35-1.352-1.35.746 0 1.352-.608 1.352-1.354z" fill="#fff"/><path d="m83.759 54.039c0 .357.289.646.645.646-.356 0-.645.289-.645.646 0-.357-.29-.646-.646-.646.356.001.646-.289.646-.646z" fill="#fff"/><path d="m86.645 54.939c0 .355.289.645.645.645-.355 0-.645.289-.645.645 0-.355-.291-.645-.646-.645.355 0 .646-.289.646-.645z" fill="#fff"/></svg>