<svg viewBox="0 0 3014 2512"
    xmlns="http://www.w3.org/2000/svg">
    <path d="M48.5 1353.5Q0 1305 0 1237t48.5-116q48.5-48 116.5-48h705L643 846q-48-48-48-116t48-117q49-48 117.5-48T877 613l506 508q49 48 49 116t-49 116l-496 497q-48 48-116.5 48T654 1850q-48-48-48-116t48-117l216-215H165q-68 0-116.5-48.5zm1192 814Q1192 2119 1192 2051t48.5-116.5Q1289 1886 1357 1886h147q36 0 61.5-25t25.5-61V710q0-35-25.5-60t-61.5-25h-147q-68 0-116.5-48.5T1192 460q0-68 48.5-116t116.5-48h147q173 0 294.5 121T1920 710v1090q0 173-122 294.5T1504 2216h-147q-68 0-116.5-48.5z"/>
</svg>